<svg version="1.2" xmlns="http://www.w3.org/2000/svg" viewBox="0 0 732 142" width="732" height="142">
	<title>Investing</title>
	<style>
		.s0 { fill: #ffffff } 
		.s1 { fill: #ff883d } 
		.s2 { fill: none } 
	</style>
	<path id="Layer" fill-rule="evenodd" class="s0" d="m479.7 132.6c-10.9 0-18.9-2.1-24.2-6.3-4.5-3.4-7-8.7-7-14.4h21.7c1 4.2 2.8 6.6 9.8 6.6 7.7 0 10.9-4.2 10.9-13.7v-8.4h-0.4c-2.7 6.9-9.7 11.2-17.2 10.5-17.9 0-27-10.2-27-30.1-0.4-8.5 2.5-16.7 8.1-23.1 5-5.2 12-8.1 19.3-8 7-0.7 13.8 2.9 17.1 9.1h0.4v-7.7h21.4v55.7c0 10.2-2.5 17.5-7.7 22.1-5.6 5.2-13.7 7.7-25.2 7.7zm0.7-71.8c-7 0-11.2 6-11.2 16.1 0 10.5 3.8 16.1 10.8 16.1 6 0 10.8-4.9 10.8-10.9v-8c0-8.4-3.8-13.3-10.4-13.3zm-204.5 50.7c-7.7 0.7-15.3-1.3-21.7-5.6-4.2-3.6-6.7-8.8-7-14.4h20q0.6 6.3 8.4 6.3c4.9 0 8-1.8 8-5.2 0-2.8-1.8-4.2-6.3-4.9l-10.2-1.4c-12.2-1.4-18.9-8.4-18.9-19.3-0.1-5.6 2.2-10.9 6.3-14.7 12.1-8.4 28.1-8.8 40.6-1 4.2 3.5 6.6 8.6 6.6 14h-19.7c-0.1-3.6-3.1-6.4-6.6-6.3h-0.4c-5.6 0-6.7 2.5-6.7 4.9 0 2.4 1 4.2 6 4.9l10.9 1.4c4.8 0.2 9.4 2.1 13 5.2 3.5 3.4 5.3 8.2 4.9 13 0.9 14.4-10 23.2-27.2 23.1zm-63-0.3c-20.3 0-31.9-11.9-31.9-33.3-0.3-8.6 2.7-17 8.4-23.5 6.2-6.1 14.8-9.3 23.5-8.8 10.9 0 19.3 3.1 24.5 9.1 5.3 6.8 8 15.2 7.7 23.8v4.9h-41.7c0.7 9.1 3.5 13.3 10.2 13.3 4 0.7 7.9-1.9 8.8-6h22.1c-1.5 13.1-12.4 20.5-31.6 20.5zm0-52.2c-6 0-8.8 4.2-9.5 12.6h18.9v-0.7c-0.7-8-3.8-11.9-9.4-11.9zm401.6 51.9c-6.8 0.4-13.4-2.2-18.2-7-4.6-5.3-7-12.2-6.7-19.3-0.4-6.9 2-13.7 6.7-18.9 4.9-4.7 11.4-7.2 18.2-7 15.4 0 24.9 9.8 24.9 25.9 0 16.1-9.9 26.3-24.9 26.3zm0-42c-8.1 0-9.8 8.8-9.8 16.1 0 10.9 3.5 16.1 9.8 16.1 6.3 0 9.8-5.6 9.8-16.1 0-10.5-3.5-16.1-9.8-16.1zm-50.1 42c-6.8 0.4-13.4-2.2-18.2-7-4.4-5.3-6.7-12-6.3-18.9 0-16.1 9.5-25.9 24.9-25.9 14 0 22.4 7 22.8 18.9h-14.3c-0.3-4.2-2.1-9.1-8.4-9.1-8.8 0-9.8 10.1-9.8 16.1 0 10.9 3.2 16.1 9.8 16.1 4.8 0 8.7-3.8 8.8-8.6 0-0.1 0-0.1 0-0.2v-1h14c0 5.7-2.4 11-6.7 14.8-5 3.2-10.7 4.9-16.6 4.8zm-235.3-0.4c-5.4 0.5-10.8-1.1-15.1-4.5-4.2-4.4-6.4-10.4-6-16.5v-59.5h21.8v17.2h13v15.4h-12.6v22.8c0 6.6 2.1 9.1 8.1 9.1 1.4 0.1 2.8-0.1 4.2-0.4v15.7c-4.6 0.3-8.8 0.7-13.4 0.7zm361.7-1h-14.7v-29.1c0.3-2.8-0.2-5.5-1.4-8-1.4-2.1-3.8-3.2-6.3-2.8-6 0-9.5 4.2-9.5 11.2v28.7h-14.7v-49.4h14v8.1c2.9-5.8 8.9-9.4 15.4-9.1 8.4 0 13.3 3.5 15.4 10.2h0.3c2.8-6.4 9.2-10.4 16.1-10.2 11.2 0 16.5 6 16.5 18.2v32.2h-14.7v-29c0.3-2.8-0.2-5.5-1.4-8-1.4-2.1-3.8-3.2-6.3-2.8-6 0-9.5 4.2-9.5 11.2zm-290.6 0h-22.4v-62.3h21.7v10.1h0.4c3.9-7.4 11.9-11.9 20.3-11.2 8 0 13.7 2.1 17.2 6.3 3.6 5.4 5.2 11.8 4.5 18.2v38.9h-22.4v-35.4c0.3-3.1-0.3-6.3-1.8-9.1-1.6-2.2-4.3-3.4-7-3.1-6.6 0-10.1 4.2-10.1 12.6zm-324.3 0h-22.4v-62.3h21.7v10.1h0.3c3.9-7.4 11.9-11.9 20.3-11.2 8 0 13.7 2.1 17.2 6.3 3.6 5.4 5.2 11.8 4.6 18.2v38.9h-22.4v-35.4c0.3-3.1-0.3-6.3-1.8-9.1-1.6-2.2-4.3-3.4-7-3.1-6.7 0-10.2 4.2-10.2 12.6zm459.5 0h-15.4v-14.7h15.4zm-165 0h-22.4v-62.3h22.4zm-208.7 0h-23.1l-22.1-62.3h22.5l8 27c2.1 7.7 3.9 15.8 3.9 16.1h0.4c1.1-5.3 2.1-10.5 3.5-15.8l8.1-27h21.7zm-116.6 0h-23.1v-88.2h23.1z"/>
	<path id="Layer" class="s1" d="m347.3 40.5l23.1-4.2v-22.8l-23.1 4.2z"/>
	<path id="Layer" class="s2" d="m0-5h732v152h-732z"/>
</svg>