<svg version="1.2" xmlns="http://www.w3.org/2000/svg" viewBox="0 0 1182 257" width="1182" height="257">
	<title>white-full-logo-svg</title>
	<style>
		.s0 { fill: #ffffff } 
	</style>
	<path id="Layer" class="s0" d="m49.3 203.1h29.7v-116.2h38.8v-28.1h-106.9v28.1h38.4z"/>
	<path id="Layer" class="s0" d="m117.9 203.1h27.8v-48.5c0-16.9 8.7-27.1 21.9-27.1 4.7 0 8.4 0.8 12.6 2.3v-28.3c-3.4-1-6.3-1.2-9.3-1.2-11.4 0-21.7 7.5-25.2 17.5v-16.3h-27.8z"/>
	<path id="Layer" fill-rule="evenodd" class="s0" d="m185.9 152.3c0-28.6 20.7-53 47.8-53 14 0 24.6 7.1 29.2 13.6v-11.4h27.9v101.6h-27.9v-11.4c-4.6 6.5-15.2 13.7-29.2 13.7-27.1 0-47.8-24.4-47.8-53.1zm79.3 0c0-16-10.2-27.6-25.6-27.6-15.5 0-25.6 11.6-25.6 27.6 0 16.1 10.1 27.7 25.6 27.7 15.4 0 25.6-11.6 25.6-27.7z"/>
	<path id="Layer" fill-rule="evenodd" class="s0" d="m309.3 152.3c0-28.6 20.7-53 47.8-53 14 0 24.5 7.1 29.2 13.6v-62.2h27.9v152.4h-27.9v-11.4c-4.7 6.5-15.2 13.7-29.2 13.7-27.1 0-47.8-24.4-47.8-53.1zm79.2 0c0-16-10.1-27.6-25.6-27.6-15.4 0-25.6 11.6-25.6 27.6 0 16.1 10.2 27.7 25.6 27.7 15.5 0 25.6-11.6 25.6-27.7z"/>
	<path id="Layer" class="s0" d="m453 84.9c10 0 17.9-8 17.9-17.7 0-9.8-7.9-17.7-17.9-17.7-9.6 0-17.7 7.9-17.7 17.7 0 9.7 8.1 17.7 17.7 17.7zm-13.8 118.2h27.8v-101.6h-27.8z"/>
	<path id="Layer" class="s0" d="m491.7 203.1h27.9v-49.6c0-19.5 9.5-28.8 22.5-28.8 11.6 0 17.9 8.9 17.9 23.6v54.8h27.8v-59.5c0-26.4-14.6-44.3-39.2-44.3-13.2 0-23.6 5.7-29 13.8v-11.6h-27.9z"/>
	<path id="Layer" fill-rule="evenodd" class="s0" d="m608.1 231.4l15.2-20.8c9 8.8 20.3 12.6 31.7 12.6 16.5 0 27.2-11.5 27.2-27.8v-6.9c-5.4 7.5-16.4 13.4-29.4 13.4-26.6 0-48-22.8-48-51.2 0-28.7 21.4-51.4 48-51.4 13 0 24 5.7 29.4 13.6v-11.4h27.9v93.7c0 36.6-23.6 52.4-54.7 52.4-17.7 0-35.7-5.1-47.3-16.2zm76.4-80.7c0-15.7-11.8-26-25.8-26-14 0-25.8 10.3-25.8 26 0 15.4 11.8 26 25.8 26 14 0 25.8-10.6 25.8-26z"/>
	<path id="Layer" class="s0" d="m768.9 203.1h26.3l59.7-144.3h-32.5l-40.2 100.2-40.9-100.2h-31.9z"/>
	<path id="Layer" class="s0" d="m880.4 84.9c10 0 17.9-8 17.9-17.7 0-9.8-7.9-17.7-17.9-17.7-9.5 0-17.6 7.9-17.6 17.7 0 9.7 8.1 17.7 17.6 17.7zm-13.8 118.2h27.9v-101.6h-27.9z"/>
	<path id="Layer" fill-rule="evenodd" class="s0" d="m912.7 152.3c0-30.1 22.5-53 53.4-53 26.6 0 50 16.8 50 50 0 2.4 0.2 5.3-0.4 9.5h-76c1.6 13.6 13.6 21.2 27 21.2 12.8 0 21.5-5.7 26.2-12.8l20.7 15.4c-9.5 13.8-25.8 22.8-47.1 22.8-30.3 0-53.8-21-53.8-53.1zm75.5-12.4c-2.4-12.2-12.6-17.7-22.9-17.7-10.4 0-22 5.3-24.6 17.7z"/>
	<path id="Layer" class="s0" d="m1120.4 203.1h27.6l33.5-101.6h-29.8l-19.1 65-20.8-65h-21.3l-20.5 65-19.3-65h-29.7l33.7 101.6h27.7l18.9-57.7z"/>
</svg>